<mxfile host="app.diagrams.net" agent="Mozilla/5.0 (Windows NT 10.0; Win64; x64) AppleWebKit/537.36 (KHTML, like Gecko) Chrome/131.0.0.0 Safari/537.36" version="25.0.1">
  <diagram name="Page-1" id="D0fdz4sSTGVxZcUkN98u">
    <mxGraphModel grid="1" page="1" gridSize="10" guides="1" tooltips="1" connect="1" arrows="1" fold="1" pageScale="1" pageWidth="850" pageHeight="1100" math="0" shadow="0">
      <root>
        <mxCell id="0" />
        <mxCell id="1" parent="0" />
        <mxCell id="stHc1MJRanxXeYHXnxnK-11" value="&lt;div style=&quot;box-sizing:border-box;width:100%;background:#e4e4e4;padding:2px;&quot;&gt;user_dim&lt;/div&gt;&lt;table style=&quot;width:100%;font-size:1em;&quot; cellpadding=&quot;2&quot; cellspacing=&quot;0&quot;&gt;&lt;tbody&gt;&lt;tr&gt;&lt;td&gt;SK&lt;/td&gt;&lt;td&gt;UserID&lt;/td&gt;&lt;td&gt;int&lt;/td&gt;&lt;td&gt;not null&lt;/td&gt;&lt;/tr&gt;&lt;tr&gt;&lt;td&gt;&lt;br&gt;&lt;/td&gt;&lt;td&gt;Username&lt;/td&gt;&lt;td&gt;varchar(50)&lt;/td&gt;&lt;td&gt;not null&lt;/td&gt;&lt;/tr&gt;&lt;tr&gt;&lt;td&gt;&lt;br&gt;&lt;/td&gt;&lt;td&gt;Email&lt;/td&gt;&lt;td&gt;varchar(100)&lt;/td&gt;&lt;td&gt;not null&lt;/td&gt;&lt;/tr&gt;&lt;tr&gt;&lt;td&gt;&lt;br&gt;&lt;/td&gt;&lt;td&gt;PasswordHash&lt;/td&gt;&lt;td&gt;varchar(255)&lt;/td&gt;&lt;td&gt;not null&lt;/td&gt;&lt;/tr&gt;&lt;tr&gt;&lt;td&gt;&lt;br&gt;&lt;/td&gt;&lt;td&gt;Bio&lt;/td&gt;&lt;td&gt;varchar(255)&lt;/td&gt;&lt;td&gt;null&lt;/td&gt;&lt;/tr&gt;&lt;tr&gt;&lt;td&gt;&lt;br&gt;&lt;/td&gt;&lt;td&gt;JoinDate&lt;/td&gt;&lt;td&gt;datetime&lt;/td&gt;&lt;td&gt;not null&lt;/td&gt;&lt;/tr&gt;&lt;tr&gt;&lt;td&gt;&lt;br&gt;&lt;/td&gt;&lt;td&gt;LocationId&lt;/td&gt;&lt;td&gt;int&lt;/td&gt;&lt;td&gt;null&lt;/td&gt;&lt;/tr&gt;&lt;/tbody&gt;&lt;/table&gt;" style="verticalAlign=top;align=left;overflow=fill;html=1;whiteSpace=wrap;" vertex="1" parent="1">
          <mxGeometry x="-370" y="410" width="270" height="150" as="geometry" />
        </mxCell>
        <mxCell id="stHc1MJRanxXeYHXnxnK-16" value="&lt;div style=&quot;box-sizing:border-box;width:100%;background:#e4e4e4;padding:2px;&quot;&gt;post_dim&lt;/div&gt;&lt;table style=&quot;width:100%;font-size:1em;&quot; cellpadding=&quot;2&quot; cellspacing=&quot;0&quot;&gt;&lt;tbody&gt;&lt;tr&gt;&lt;td&gt;PK&lt;/td&gt;&lt;td&gt;PostID&lt;/td&gt;&lt;td&gt;int&lt;/td&gt;&lt;td&gt;not null&lt;/td&gt;&lt;/tr&gt;&lt;tr&gt;&lt;td&gt;&lt;br&gt;&lt;/td&gt;&lt;td&gt;Caption&lt;/td&gt;&lt;td&gt;varchar(225)&lt;/td&gt;&lt;td&gt;not null&lt;/td&gt;&lt;/tr&gt;&lt;tr&gt;&lt;td&gt;&lt;br&gt;&lt;/td&gt;&lt;td&gt;MediaType&lt;/td&gt;&lt;td&gt;varchar(50)&lt;/td&gt;&lt;td&gt;not null&lt;/td&gt;&lt;/tr&gt;&lt;tr&gt;&lt;td&gt;&lt;br&gt;&lt;/td&gt;&lt;td&gt;PostDate&lt;/td&gt;&lt;td&gt;datetime&lt;/td&gt;&lt;td&gt;not null&lt;/td&gt;&lt;/tr&gt;&lt;/tbody&gt;&lt;/table&gt;" style="verticalAlign=top;align=left;overflow=fill;html=1;whiteSpace=wrap;" vertex="1" parent="1">
          <mxGeometry x="20" y="210" width="270" height="90" as="geometry" />
        </mxCell>
        <mxCell id="stHc1MJRanxXeYHXnxnK-28" style="edgeStyle=orthogonalEdgeStyle;rounded=0;orthogonalLoop=1;jettySize=auto;html=1;entryX=0;entryY=0.75;entryDx=0;entryDy=0;exitX=1;exitY=0.5;exitDx=0;exitDy=0;" edge="1" parent="1" source="stHc1MJRanxXeYHXnxnK-42" target="stHc1MJRanxXeYHXnxnK-16">
          <mxGeometry relative="1" as="geometry">
            <mxPoint x="325.09090909090855" y="180" as="sourcePoint" />
          </mxGeometry>
        </mxCell>
        <mxCell id="stHc1MJRanxXeYHXnxnK-39" style="edgeStyle=orthogonalEdgeStyle;rounded=0;orthogonalLoop=1;jettySize=auto;html=1;exitX=1.016;exitY=0.593;exitDx=0;exitDy=0;exitPerimeter=0;" edge="1" parent="1" source="stHc1MJRanxXeYHXnxnK-47" target="stHc1MJRanxXeYHXnxnK-51">
          <mxGeometry relative="1" as="geometry">
            <mxPoint x="460" y="725" as="sourcePoint" />
            <mxPoint x="425" y="610" as="targetPoint" />
          </mxGeometry>
        </mxCell>
        <mxCell id="stHc1MJRanxXeYHXnxnK-42" value="&lt;div style=&quot;box-sizing:border-box;width:100%;background:#e4e4e4;padding:2px;&quot;&gt;like_fact&lt;/div&gt;&lt;table style=&quot;width:100%;font-size:1em;&quot; cellpadding=&quot;2&quot; cellspacing=&quot;0&quot;&gt;&lt;tbody&gt;&lt;tr&gt;&lt;td&gt;SK&lt;/td&gt;&lt;td&gt;LikeID&lt;/td&gt;&lt;td&gt;int&lt;/td&gt;&lt;td&gt;not null&lt;/td&gt;&lt;/tr&gt;&lt;tr&gt;&lt;td&gt;FK&lt;/td&gt;&lt;td&gt;UserId&lt;/td&gt;&lt;td&gt;int&lt;/td&gt;&lt;td&gt;not null&lt;/td&gt;&lt;/tr&gt;&lt;tr&gt;&lt;td&gt;FK&lt;/td&gt;&lt;td&gt;PostID&lt;/td&gt;&lt;td&gt;int&lt;/td&gt;&lt;td&gt;not null&lt;/td&gt;&lt;/tr&gt;&lt;tr&gt;&lt;td&gt;&lt;br&gt;&lt;/td&gt;&lt;td&gt;LikeDate&lt;/td&gt;&lt;td&gt;datetime&lt;/td&gt;&lt;td&gt;not null&lt;/td&gt;&lt;/tr&gt;&lt;/tbody&gt;&lt;/table&gt;" style="verticalAlign=top;align=left;overflow=fill;html=1;whiteSpace=wrap;" vertex="1" parent="1">
          <mxGeometry x="-380" y="200" width="270" height="100" as="geometry" />
        </mxCell>
        <mxCell id="stHc1MJRanxXeYHXnxnK-43" style="edgeStyle=orthogonalEdgeStyle;rounded=0;orthogonalLoop=1;jettySize=auto;html=1;entryX=0.578;entryY=0.007;entryDx=0;entryDy=0;entryPerimeter=0;" edge="1" parent="1" source="stHc1MJRanxXeYHXnxnK-42" target="stHc1MJRanxXeYHXnxnK-11">
          <mxGeometry relative="1" as="geometry" />
        </mxCell>
        <mxCell id="stHc1MJRanxXeYHXnxnK-49" style="edgeStyle=orthogonalEdgeStyle;rounded=0;orthogonalLoop=1;jettySize=auto;html=1;" edge="1" parent="1" source="stHc1MJRanxXeYHXnxnK-47" target="stHc1MJRanxXeYHXnxnK-48">
          <mxGeometry relative="1" as="geometry" />
        </mxCell>
        <mxCell id="stHc1MJRanxXeYHXnxnK-58" style="edgeStyle=orthogonalEdgeStyle;rounded=0;orthogonalLoop=1;jettySize=auto;html=1;entryX=1;entryY=0.5;entryDx=0;entryDy=0;" edge="1" parent="1" source="stHc1MJRanxXeYHXnxnK-47" target="stHc1MJRanxXeYHXnxnK-57">
          <mxGeometry relative="1" as="geometry" />
        </mxCell>
        <mxCell id="stHc1MJRanxXeYHXnxnK-47" value="&lt;div style=&quot;box-sizing:border-box;width:100%;background:#e4e4e4;padding:2px;&quot;&gt;comment_fact&lt;/div&gt;&lt;table style=&quot;width:100%;font-size:1em;&quot; cellpadding=&quot;2&quot; cellspacing=&quot;0&quot;&gt;&lt;tbody&gt;&lt;tr&gt;&lt;td&gt;SK&lt;/td&gt;&lt;td&gt;CommentID&lt;/td&gt;&lt;td&gt;int&lt;/td&gt;&lt;td&gt;not null&lt;/td&gt;&lt;/tr&gt;&lt;tr&gt;&lt;td&gt;FK&lt;/td&gt;&lt;td&gt;UserId&lt;/td&gt;&lt;td&gt;int&lt;/td&gt;&lt;td&gt;not null&lt;/td&gt;&lt;/tr&gt;&lt;tr&gt;&lt;td&gt;FK&lt;/td&gt;&lt;td&gt;PostID&lt;/td&gt;&lt;td&gt;int&lt;/td&gt;&lt;td&gt;not null&lt;/td&gt;&lt;/tr&gt;&lt;tr&gt;&lt;td&gt;&lt;br&gt;&lt;/td&gt;&lt;td&gt;CommentDate&lt;/td&gt;&lt;td&gt;datetime&lt;/td&gt;&lt;td&gt;not null&lt;/td&gt;&lt;/tr&gt;&lt;tr&gt;&lt;td&gt;FK&lt;/td&gt;&lt;td&gt;LikeID&lt;/td&gt;&lt;td&gt;int&lt;/td&gt;&lt;td&gt;null&lt;/td&gt;&lt;/tr&gt;&lt;tr&gt;&lt;td&gt;&lt;br&gt;&lt;/td&gt;&lt;td&gt;Content&lt;/td&gt;&lt;td&gt;varchar&lt;/td&gt;&lt;td&gt;not null&lt;/td&gt;&lt;/tr&gt;&lt;/tbody&gt;&lt;/table&gt;" style="verticalAlign=top;align=left;overflow=fill;html=1;whiteSpace=wrap;" vertex="1" parent="1">
          <mxGeometry x="60" y="560" width="270" height="130" as="geometry" />
        </mxCell>
        <mxCell id="stHc1MJRanxXeYHXnxnK-54" style="edgeStyle=orthogonalEdgeStyle;rounded=0;orthogonalLoop=1;jettySize=auto;html=1;" edge="1" parent="1" source="stHc1MJRanxXeYHXnxnK-48">
          <mxGeometry relative="1" as="geometry">
            <mxPoint x="470" y="710.0000000000002" as="targetPoint" />
          </mxGeometry>
        </mxCell>
        <mxCell id="stHc1MJRanxXeYHXnxnK-48" value="&lt;div style=&quot;box-sizing:border-box;width:100%;background:#e4e4e4;padding:2px;&quot;&gt;post_dim&lt;/div&gt;&lt;table style=&quot;width:100%;font-size:1em;&quot; cellpadding=&quot;2&quot; cellspacing=&quot;0&quot;&gt;&lt;tbody&gt;&lt;tr&gt;&lt;td&gt;SK&lt;/td&gt;&lt;td&gt;PostID&lt;/td&gt;&lt;td&gt;int&lt;/td&gt;&lt;td&gt;not null&lt;/td&gt;&lt;/tr&gt;&lt;tr&gt;&lt;td&gt;&lt;br&gt;&lt;/td&gt;&lt;td&gt;Caption&lt;/td&gt;&lt;td&gt;varchar(225)&lt;/td&gt;&lt;td&gt;not null&lt;/td&gt;&lt;/tr&gt;&lt;tr&gt;&lt;td&gt;&lt;br&gt;&lt;/td&gt;&lt;td&gt;MediaType&lt;/td&gt;&lt;td&gt;varchar(50)&lt;/td&gt;&lt;td&gt;not null&lt;/td&gt;&lt;/tr&gt;&lt;tr&gt;&lt;td&gt;&lt;br&gt;&lt;/td&gt;&lt;td&gt;PostDate&lt;/td&gt;&lt;td&gt;datetime&lt;/td&gt;&lt;td&gt;not null&lt;/td&gt;&lt;/tr&gt;&lt;/tbody&gt;&lt;/table&gt;" style="verticalAlign=top;align=left;overflow=fill;html=1;whiteSpace=wrap;" vertex="1" parent="1">
          <mxGeometry x="60" y="760" width="270" height="90" as="geometry" />
        </mxCell>
        <mxCell id="PJDBSRB8ND8AdYDtsbEi-3" style="edgeStyle=orthogonalEdgeStyle;rounded=0;orthogonalLoop=1;jettySize=auto;html=1;entryX=0.5;entryY=0;entryDx=0;entryDy=0;" edge="1" parent="1" source="stHc1MJRanxXeYHXnxnK-51" target="PJDBSRB8ND8AdYDtsbEi-2">
          <mxGeometry relative="1" as="geometry" />
        </mxCell>
        <mxCell id="stHc1MJRanxXeYHXnxnK-51" value="&lt;div style=&quot;box-sizing:border-box;width:100%;background:#e4e4e4;padding:2px;&quot;&gt;user_dim&lt;/div&gt;&lt;table style=&quot;width:100%;font-size:1em;&quot; cellpadding=&quot;2&quot; cellspacing=&quot;0&quot;&gt;&lt;tbody&gt;&lt;tr&gt;&lt;td&gt;SK&lt;/td&gt;&lt;td&gt;UserID&lt;/td&gt;&lt;td&gt;int&lt;/td&gt;&lt;td&gt;not null&lt;/td&gt;&lt;/tr&gt;&lt;tr&gt;&lt;td&gt;&lt;br&gt;&lt;/td&gt;&lt;td&gt;Username&lt;/td&gt;&lt;td&gt;varchar(50)&lt;/td&gt;&lt;td&gt;not null&lt;/td&gt;&lt;/tr&gt;&lt;tr&gt;&lt;td&gt;&lt;br&gt;&lt;/td&gt;&lt;td&gt;Email&lt;/td&gt;&lt;td&gt;varchar(100)&lt;/td&gt;&lt;td&gt;not null&lt;/td&gt;&lt;/tr&gt;&lt;tr&gt;&lt;td&gt;&lt;br&gt;&lt;/td&gt;&lt;td&gt;PasswordHash&lt;/td&gt;&lt;td&gt;varchar(255)&lt;/td&gt;&lt;td&gt;not null&lt;/td&gt;&lt;/tr&gt;&lt;tr&gt;&lt;td&gt;&lt;br&gt;&lt;/td&gt;&lt;td&gt;Bio&lt;/td&gt;&lt;td&gt;varchar(255)&lt;/td&gt;&lt;td&gt;null&lt;/td&gt;&lt;/tr&gt;&lt;tr&gt;&lt;td&gt;&lt;br&gt;&lt;/td&gt;&lt;td&gt;JoinDate&lt;/td&gt;&lt;td&gt;datetime&lt;/td&gt;&lt;td&gt;not null&lt;/td&gt;&lt;/tr&gt;&lt;tr&gt;&lt;td&gt;FK&lt;/td&gt;&lt;td&gt;LocationID&lt;/td&gt;&lt;td&gt;int&lt;/td&gt;&lt;td&gt;null&lt;/td&gt;&lt;/tr&gt;&lt;/tbody&gt;&lt;/table&gt;" style="verticalAlign=top;align=left;overflow=fill;html=1;whiteSpace=wrap;" vertex="1" parent="1">
          <mxGeometry x="460" y="550" width="270" height="160" as="geometry" />
        </mxCell>
        <mxCell id="stHc1MJRanxXeYHXnxnK-53" style="edgeStyle=orthogonalEdgeStyle;rounded=0;orthogonalLoop=1;jettySize=auto;html=1;entryX=0.206;entryY=0.994;entryDx=0;entryDy=0;entryPerimeter=0;" edge="1" parent="1" source="stHc1MJRanxXeYHXnxnK-11" target="stHc1MJRanxXeYHXnxnK-16">
          <mxGeometry relative="1" as="geometry" />
        </mxCell>
        <mxCell id="stHc1MJRanxXeYHXnxnK-55" value="&lt;div style=&quot;box-sizing:border-box;width:100%;background:#e4e4e4;padding:2px;&quot;&gt;location_dim&lt;/div&gt;&lt;table style=&quot;width:100%;font-size:1em;&quot; cellpadding=&quot;2&quot; cellspacing=&quot;0&quot;&gt;&lt;tbody&gt;&lt;tr&gt;&lt;td&gt;SK&lt;/td&gt;&lt;td&gt;LocationID&lt;/td&gt;&lt;td&gt;int&lt;/td&gt;&lt;td&gt;not null&lt;/td&gt;&lt;/tr&gt;&lt;tr&gt;&lt;td&gt;&lt;br&gt;&lt;/td&gt;&lt;td&gt;Adrress&lt;/td&gt;&lt;td&gt;varchar(100)&lt;/td&gt;&lt;td&gt;not null&lt;/td&gt;&lt;/tr&gt;&lt;tr&gt;&lt;td&gt;&lt;br&gt;&lt;/td&gt;&lt;td&gt;Region&lt;/td&gt;&lt;td&gt;varchart(50)&lt;/td&gt;&lt;td&gt;not null&lt;/td&gt;&lt;/tr&gt;&lt;/tbody&gt;&lt;/table&gt;" style="verticalAlign=top;align=left;overflow=fill;html=1;whiteSpace=wrap;" vertex="1" parent="1">
          <mxGeometry x="200" y="380" width="270" height="80" as="geometry" />
        </mxCell>
        <mxCell id="stHc1MJRanxXeYHXnxnK-56" style="edgeStyle=orthogonalEdgeStyle;rounded=0;orthogonalLoop=1;jettySize=auto;html=1;entryX=0.5;entryY=1;entryDx=0;entryDy=0;exitX=0.991;exitY=0.864;exitDx=0;exitDy=0;exitPerimeter=0;" edge="1" parent="1" source="stHc1MJRanxXeYHXnxnK-11" target="stHc1MJRanxXeYHXnxnK-55">
          <mxGeometry relative="1" as="geometry" />
        </mxCell>
        <mxCell id="stHc1MJRanxXeYHXnxnK-57" value="&lt;div style=&quot;box-sizing:border-box;width:100%;background:#e4e4e4;padding:2px;&quot;&gt;like_dim&lt;/div&gt;&lt;table style=&quot;width:100%;font-size:1em;&quot; cellpadding=&quot;2&quot; cellspacing=&quot;0&quot;&gt;&lt;tbody&gt;&lt;tr&gt;&lt;td&gt;SK&lt;/td&gt;&lt;td&gt;LikeID&lt;/td&gt;&lt;td&gt;int&lt;/td&gt;&lt;td&gt;not null&lt;/td&gt;&lt;/tr&gt;&lt;tr&gt;&lt;td&gt;FK&lt;/td&gt;&lt;td&gt;UserId&lt;/td&gt;&lt;td&gt;int&lt;/td&gt;&lt;td&gt;not null&lt;/td&gt;&lt;/tr&gt;&lt;tr&gt;&lt;td&gt;FK&lt;/td&gt;&lt;td&gt;PostID&lt;/td&gt;&lt;td&gt;int&lt;/td&gt;&lt;td&gt;not null&lt;/td&gt;&lt;/tr&gt;&lt;tr&gt;&lt;td&gt;&lt;br&gt;&lt;/td&gt;&lt;td&gt;LikeDate&lt;/td&gt;&lt;td&gt;datetime&lt;/td&gt;&lt;td&gt;not null&lt;/td&gt;&lt;/tr&gt;&lt;/tbody&gt;&lt;/table&gt;" style="verticalAlign=top;align=left;overflow=fill;html=1;whiteSpace=wrap;" vertex="1" parent="1">
          <mxGeometry x="-360" y="670" width="270" height="100" as="geometry" />
        </mxCell>
        <mxCell id="PJDBSRB8ND8AdYDtsbEi-1" style="edgeStyle=orthogonalEdgeStyle;rounded=0;orthogonalLoop=1;jettySize=auto;html=1;exitX=0.5;exitY=1;exitDx=0;exitDy=0;" edge="1" parent="1" source="stHc1MJRanxXeYHXnxnK-48" target="stHc1MJRanxXeYHXnxnK-48">
          <mxGeometry relative="1" as="geometry" />
        </mxCell>
        <mxCell id="PJDBSRB8ND8AdYDtsbEi-2" value="&lt;div style=&quot;box-sizing:border-box;width:100%;background:#e4e4e4;padding:2px;&quot;&gt;location_dim&lt;/div&gt;&lt;table style=&quot;width:100%;font-size:1em;&quot; cellpadding=&quot;2&quot; cellspacing=&quot;0&quot;&gt;&lt;tbody&gt;&lt;tr&gt;&lt;td&gt;SK&lt;/td&gt;&lt;td&gt;LocationID&lt;/td&gt;&lt;td&gt;int&lt;/td&gt;&lt;td&gt;not null&lt;/td&gt;&lt;/tr&gt;&lt;tr&gt;&lt;td&gt;&lt;br&gt;&lt;/td&gt;&lt;td&gt;Adrress&lt;/td&gt;&lt;td&gt;varchar(100)&lt;/td&gt;&lt;td&gt;not null&lt;/td&gt;&lt;/tr&gt;&lt;tr&gt;&lt;td&gt;&lt;br&gt;&lt;/td&gt;&lt;td&gt;Region&lt;/td&gt;&lt;td&gt;varchart(50)&lt;/td&gt;&lt;td&gt;not null&lt;/td&gt;&lt;/tr&gt;&lt;/tbody&gt;&lt;/table&gt;" style="verticalAlign=top;align=left;overflow=fill;html=1;whiteSpace=wrap;" vertex="1" parent="1">
          <mxGeometry x="510" y="800" width="270" height="80" as="geometry" />
        </mxCell>
      </root>
    </mxGraphModel>
  </diagram>
</mxfile>
